<?xml version="1.0" encoding="UTF-8"?>
<svg width="634.04" height="408.18" version="1.1" viewBox="0 0 634.04 408.18" xmlns="http://www.w3.org/2000/svg">
 <g transform="translate(91.54 77.375)">
  <g transform="matrix(10.826 0 0 10.826 -1375.3 -1992.7)">
   <path d="m147.45 199.64 3.2812-8.125c1.5625-0.0859 4.0977 0.26563 5.668 0.64453l-3.375 8.3594c-1.5312-0.37891-4.043-0.83985-5.5742-0.87891" fill="#3d87cf"/>
   <path d="m162.2 195.43-3.4102 8.3984c-1.1406-0.9375-4.2656-2.7188-5.7656-3.3086l3.375-8.3594c1.5273 0.54297 4.7891 2.1797 5.8008 3.2695" fill="#fac705"/>
   <path d="m165.54 187.65-3.3477 7.7812c-1.0938-1-4.2578-2.707-5.8008-3.2695l3.3828-8.375c1.543 0.51563 4.7617 2.7188 5.7656 3.8633" fill="#66c557"/>
   <path d="m150.73 191.52 3.3281-8.2227c1.5586-0.0547 4.1562 0.19141 5.7226 0.49219l-3.3828 8.375c-1.5508-0.42578-4.1172-0.67578-5.668-0.64453" fill="#f3632e"/>
   <path d="m139.46 194.54-1.6055-0.0273c0.10937-0.32422 0.25-0.6875 0.38672-0.99219l1.6211-4e-3c-0.11719 0.33204-0.25781 0.69141-0.40234 1.0234" fill="#3d87cf"/>
   <path d="m141.94 195.88-2.0234-0.0117 0.56641-1.375c0.66797-4e-3 1.3438 0 2.0156 0.0234l-0.55859 1.3633" fill="#3d87cf"/>
   <path d="m145.3 195.54c-0.23437 0.53906-0.43359 1.1172-0.67578 1.6602l-2.2773-0.0273 0.67187-1.6484 2.2812 0.0156" fill="#3d87cf"/>
   <path d="m137.3 192.89-1.168-8e-3c0.0937-0.26953 0.21094-0.57031 0.33203-0.83985 0.39844-4e-3 0.79688-0.0273 1.1953-0.0117l-0.35938 0.85937" fill="#3d87cf"/>
   <path d="m135.19 191.18c-0.30078 8e-3 -0.60547 0.0391-0.90625 0.0312l0.29297-0.71093c0.30078-0.0156 0.60156-0.0312 0.90234-0.0312l-0.28906 0.71093" fill="#3d87cf"/>
   <path d="m140.52 191.9-1.6094-0.0195 0.38671-0.98828c0.54688 0.0156 1.0938-0.0156 1.6367 4e-3l-0.41406 1.0039" fill="#3d87cf"/>
   <path d="m142.99 193.26-2.0078-8e-3 0.54297-1.3672c0.67578-4e-3 1.3516-8e-3 2.0274 8e-3l-0.5625 1.3672" fill="#3d87cf"/>
   <path d="m145.7 194.55-2.2852-0.0508 0.66406-1.6211 2.2774 0.0234-0.65625 1.6484" fill="#3d87cf"/>
   <path d="m138.41 190.16c-0.39063-0.0117-0.79297 0.0195-1.1875-4e-3l0.35937-0.88672 1.1641 0.0312c-0.0859 0.27734-0.20703 0.58203-0.33594 0.85938" fill="#3d87cf"/>
   <path d="m136.29 188.46-0.90235 0.0195 0.27735-0.70703c0.29297-0.0273 0.60937-0.0273 0.91406-0.0273l-0.28906 0.71484" fill="#3d87cf"/>
   <path d="m142.71 186.48-1.6133-0.0117 0.39453-1.0078c0.54297 8e-3 1.0859 0 1.6328 0.0117l-0.41406 1.0078" fill="#f3632e"/>
   <path d="m143.18 187.84 0.54297-1.3828h2.0117l-0.54297 1.3828h-2.0117" fill="#f3632e"/>
   <path d="m147.92 189.04-2.2852-0.0156 0.66015-1.6445 2.2812 8e-3 -0.65625 1.6523" fill="#f3632e"/>
   <path d="m140.61 184.72c-0.38281 0.0195-0.78515 0-1.1758 8e-3l0.32813-0.875c0.38281-0.0312 0.78906 0.0156 1.1758 4e-3l-0.32813 0.86328" fill="#f3632e"/>
   <path d="m138.48 183.01c-0.30078 8e-3 -0.60156 0.0391-0.90625 0.0273l0.29688-0.71094 0.89453-0.043-0.28516 0.72656" fill="#f3632e"/>
   <path d="m143.8 183.78c-0.53906 0-1.0781-8e-3 -1.6172-0.0312l0.39844-0.98828c0.54297 8e-3 1.0859-0.0117 1.6289 4e-3l-0.41016 1.0156" fill="#f3632e"/>
   <path d="m146.27 185.14c-0.67187 0-1.3477 0.0117-2.0234-8e-3l0.5625-1.375c0.67578-8e-3 1.3477 4e-3 2.0234 8e-3l-0.5625 1.375" fill="#f3632e"/>
   <path d="m148.96 186.45-2.2695-0.0234 0.66016-1.6524 2.2852 0.0156-0.67578 1.6602" fill="#f3632e"/>
   <path d="m141.69 182.02h-1.1797l0.34765-0.88672c0.39844 0.0195 0.78907 0 1.1836 0.0234l-0.35156 0.86328" fill="#f3632e"/>
   <path d="m139.58 180.3-0.90625 0.0391 0.28125-0.71484c0.30078-0.0352 0.60547-0.0195 0.90625-0.0391l-0.28125 0.71485" fill="#f3632e"/>
   <path d="m138.44 197.3c-0.63672 8e-3 -1.2773 4e-3 -1.918-0.0156l0.45703-1.1328c0.64063 0 1.2852 0.0195 1.9336 0.0117l-0.47266 1.1367"/>
   <path d="m153.11 184.74-2.8711 0.0195 1.0078-2.5039c0.97656-0.10938 1.9609-0.21485 2.9414-0.1836l-1.0781 2.668"/>
   <path d="m140.71 177.73-1.0898 0.0234 0.31641-0.8086c0.36718-8e-3 0.73437-0.0234 1.1016-0.0234l-0.32813 0.8086"/>
   <path d="m142.88 179.33c-0.48438-0.0156-0.96875-0.0117-1.457-0.0312l0.38281-0.9375c0.48828 0.0156 0.97656-8e-3 1.4648 0.0234l-0.39062 0.94531"/>
   <path d="m150.19 183.86-2.7148-0.0117 0.78906-1.9727 2.7188 0.0234-0.79297 1.9609"/>
   <path d="m145.1 182.48 0.58985-1.4922 2.3945 4e-3 -0.60157 1.5039-2.3828-0.0156"/>
   <path d="m144.98 181.11-1.9219-0.0156 0.44532-1.125c0.64062 0 1.2852-0.0234 1.9336 0l-0.45703 1.1406"/>
   <path d="m152.06 187.35c-0.95703 0.0234-1.918 0.0391-2.8789 0.043l0.9375-2.3164 2.8633-0.0117-0.92187 2.2852"/>
   <path d="m150.98 190.01-2.8711 0.0391-0.0156-8e-3 0.92968-2.3164 2.8945-0.043-0.9375 2.3281"/>
   <path d="m136.37 185.81 0.31641-0.80078 1.1055-0.0391-0.32422 0.82421-1.0977 0.0156"/>
   <path d="m147.04 192.68 0.92578-2.3086 2.875-0.0352-0.91797 2.3125-2.8828 0.0312"/>
   <path d="m139.59 187.47-1.457-0.0195 0.38281-0.9375c0.48828 0.0156 0.97265-8e-3 1.4609 0.0234l-0.38672 0.93359"/>
   <path d="m146.91 191.97-2.7148-0.0195 0.78125-1.9609 2.7226 0.0234-0.78906 1.957"/>
   <path d="m144.2 190.63-2.3711-8e-3 -0.0195-8e-3 0.60547-1.4883 2.3906 4e-3 -0.60547 1.5"/>
   <path d="m141.69 189.26-1.918-0.0195 0.44141-1.125c0.64843-8e-3 1.3008-4e-3 1.9492 8e-3l-0.47266 1.1367"/>
   <path d="m148.84 195.33-0.0117 0.0273-2.875 0.0352 0.94141-2.3711 2.8906-0.0312-0.94532 2.3398"/>
   <path d="m147.76 198-2.8828 0.0703-0.0195-8e-3 0.95703-2.3477 2.8711-0.0273-0.92578 2.3125"/>
   <path d="m134.17 193.94c-0.36328-0.0117-0.72656 0.0234-1.0898 0l0.31641-0.77344c0.37109-0.0312 0.74219-0.0234 1.1172-0.0391l-0.34375 0.8125"/>
   <path d="m146.61 200.84c-0.96094-0.0234-1.918-0.0312-2.8828 0.0469l1.0039-2.4922 2.8945-0.0508-1.0156 2.4961"/>
   <path d="m136.31 195.62-1.4688 8e-3 0.36328-0.93359c0.4961 0 0.98438-0.0156 1.4805-4e-3l-0.375 0.92969"/>
   <path d="m143.65 200.04-2.7031-0.0391 0.79297-1.957 2.7031 0.0273-0.79297 1.9688"/>
   <path d="m138.57 198.67 0.60546-1.5078 2.3789 0.0156-0.60547 1.5117-2.3789-0.0195"/>
   <path d="m164.05 188.08c-1.0039-1.1445-2.3984-1.957-3.9414-2.4688l-2.4141 5.9727c1.5391 0.56641 2.8984 1.3438 3.9922 2.3398zm-3.1328 7.793c-1.0117-1.0898-2.4609-1.8633-3.9844-2.4062l-2.4531 6.1016c1.4961 0.58984 2.8984 1.2891 4.0391 2.2266zm6.2031-8.4883-7.668 18.977c-1.9883-2.7109-5.4453-4.4219-8.918-5.0703-1.1953-0.21875-2.3945-0.38281-3.5898-0.42969l1.0039-2.4688c1.5312 0.043 3.0664 0.22266 4.5977 0.60547l2.4766-6.1367c-1.5703-0.3789-3.1367-0.42578-4.6992-0.33984l0.80469-2.0156c1.5469-0.0312 3.0977 0.0664 4.6484 0.49218l2.3906-5.9102c-1.5664-0.30469-3.1328-0.41407-4.6914-0.35938l1.0703-2.6719c3.5547-0.0156 7.668 0.97656 10.582 3.3359 0.73828 0.58594 1.418 1.2344 1.9922 1.9922"/>
  </g>
  <g>
   <path d="m-91.54 250.07h5.0251v-39.118l15.712 39.118h4.1192l15.918-38.87v38.87h5.6551v-43.683h-8.4437l-14.665 36.684-14.806-36.684h-8.5144v43.683"/>
   <path d="m-36.801 211.14h5.3082v-4.7491h-5.3082zm0 38.934h5.3082v-32.437h-5.3082v32.437" fill-rule="evenodd"/>
   <path d="m10.612 250.07h5.3719v-16.434c0-7.4386 4.4023-11.997 11.246-11.997h0.90594v-4.8128c-0.7007-0.0637-1.3306-0.12733-1.9534-0.12733-4.9614 0-8.3092 2.6895-10.475 8.1251v-7.1909h-5.0959v32.437"/>
   <path d="m45.08 250.64c9.569 0 16.201-6.6247 16.201-16.937 0-10.376-6.6318-16.937-16.201-16.937-9.4911 0-16.059 6.561-16.059 16.937 0 10.312 6.5681 16.937 16.059 16.937zm0-3.9989c-6.1434 0-10.263-4.7491-10.263-12.938 0-8.2526 4.0484-12.938 10.263-12.938 6.2142 0 10.333 4.7491 10.333 12.938 0 8.1252-4.1829 12.938-10.333 12.938" fill-rule="evenodd"/>
   <path d="m113.67 250.64c9.5619 0 16.201-6.6247 16.201-16.937 0-10.376-6.6388-16.937-16.201-16.937-9.4982 0-16.059 6.561-16.059 16.937 0 10.312 6.561 16.937 16.059 16.937zm0-3.9989c-6.1434 0-10.263-4.7491-10.263-12.938 0-8.2526 4.0484-12.938 10.263-12.938s10.333 4.7491 10.333 12.938c0 8.1252-4.19 12.938-10.333 12.938" fill-rule="evenodd"/>
   <path d="m144.03 217.64c0-0.36803-0.0708-0.80685-0.0708-1.182 0-4.5651 2.0242-6.6884 6.4194-6.6884 0.97671 0 2.4489 0.12026 4.3315 0.43882v-4.006c-1.7482-0.31141-3.4893-0.43173-5.3082-0.43173-7.2617 0-10.68 3.8078-10.68 11.622v0.24771h-6.3557v3.5034h6.3557v28.933h5.3082v-28.933h13.547v16.993c0 4.1263 0 7.1272 1.4651 9.0028 2.0242 2.6824 4.9614 3.8078 9.2151 3.8078 1.4722 0 3.008-0.18402 4.4731-0.49543v-3.9989c-1.3235 0.31141-2.5833 0.36803-3.7016 0.36803-5.4427 0-6.0726-2.5621-6.0726-8.5569v-17.121h8.5144v-3.5034h-8.5144v-8.1251l-5.379 0.50251v7.6226h-13.547"/>
   <path d="m-0.77619 228.91 5.0181-0.6936c-1.182-7.3183-6.0656-11.452-12.903-11.452-9.4841 0-16.045 6.6318-16.045 16.965 0 10.454 6.2071 16.965 15.21 16.965 7.2546 0 12.343-4.006 13.738-11.211l-4.8057-0.80687c-1.1183 5.0676-4.4023 7.8845-8.7267 7.8845-5.648 0-9.6185-4.7562-9.6185-12.832 0-8.203 4.1829-12.959 9.7601-12.959 4.1829 0 7.6722 3.0009 8.3729 8.1393"/>
   <path d="m65.039 241.32c1.6633 5.7966 7.0706 9.2222 14.906 9.2222 8.1747 0 13.582-4.2324 13.582-9.9724 0-4.919-3.5388-7.474-10.949-9.1585-6.8653-1.5571-10.885-1.6208-10.885-5.6055 0-3.0576 2.7037-5.0535 7.2121-5.0535 4.2961 0 7.0706 1.7482 8.1747 5.0535l4.9261-0.93427c-1.734-5.2374-6.3133-8.1039-12.896-8.1039-7.7642 0-12.754 4.1758-12.754 9.5973 0 5.3578 3.6025 7.4174 11.367 9.0948 6.5185 1.4368 10.263 1.8119 10.263 5.7329 0 3.1212-3.0505 5.4286-8.0402 5.4286-4.926 0-8.6701-2.2436-10.121-6.1717l-4.7845 0.87056"/>
   <path d="m452.52 255.42c12.23 0 20.462 7.9553 20.462 19.025 0 9.9158-9.3213 18.791-21.063 18.791-11.02 0-19.011-7.7217-19.011-17.984 0-11.643 8.479-19.832 19.612-19.832zm22.521 30.441v1.3802c0 23.172-8.84 35.395-24.574 35.395-7.75 0-13.681-3.6874-17.921-11.069l-8.472 2.8806c4.4802 10.609 13.681 16.144 27.235 16.144 20.093 0 33.895-16.717 33.895-44.271 0-24.786-12.464-38.97-32.925-38.97-9.201 0-17.793 3.6875-23.243 10.029-4.4802 5.1879-6.9007 11.65-6.9007 17.871 0 15.104 11.99 26.286 27.723 26.286 11.14 0 20.334-5.648 25.182-15.677" fill-rule="evenodd"/>
   <path d="m480.65 312.15c5.0818 11.876 15.974 18.444 30.505 18.444 9.4416 0 17.914-3.3407 23.852-9.3354 4.9614-5.0747 7.5023-11.416 7.5023-18.791 0-15.797-11.982-27.093-28.933-27.093-8.8329 0-15.613 3.1142-20.214 8.7621l1.4509-26.633h42.374l0.36094-8.5286h-50.117l-2.4206 43.577 7.9836 1.3802c3.8786-7.0281 10.652-10.836 18.522-10.836 11.742 0 20.702 8.4153 20.702 19.598 0 11.416-9.201 19.832-22.033 19.832-9.8025 0-16.824-4.6146-20.454-13.377l-9.0806 3.0009"/>
   <path d="m85.996 329.01 23.193-0.0353v-36.429c0-5.5347 2.5409-8.4153 6.6601-8.4153 3.9918 0 6.0726 3.5742 6.0726 9.109v35.77l23.462-0.0353v-38.97c0-14.983-5.6904-21.905-20.093-21.905-8.2313 0-14.41 3.461-17.8 10.029v-8.4153l-21.481 0.0565-0.01454 59.24"/>
   <path d="m288.79 329.01h17.312l8.8824-33.102 8.0686 33.102h17.553l19.895-59.275h-16.824l-8.84 29.861-7.7429-29.861h-18.161l-7.5023 29.054-8.5923-29.054h-23.731l19.683 59.275"/>
   <path d="m-32.647 328.98h23.901l11.069-44.929 11.43 44.929h23.42l22.62-78.633h-20.065l-12.039 45.304-11.798-45.608h-21.778l-11.494 46.061-11.671-46.061h-26.095l22.5 78.937"/>
   <path d="m81.282 250.34h-23.477v14.644h23.477z"/>
   <path d="m81.282 269.71h-23.477v59.261h23.477z"/>
   <path d="m185.52 303.96c0 2.9231 0.24773 5.0251-1.4863 7.5943-1.3589 1.9888-2.9726 3.0363-5.4427 3.0363-7.6722 0-8.7268-9.3425-8.7197-14.601 0.0283-10.992 3.2132-17.404 8.84-17.411 1.9817 0 4.2112 0.821 5.3224 2.3427 1.6066 1.8685 1.4863 4.6713 1.4863 7.0069zm24.135 24.998v-80.14h-23.83v25.352c-3.8361-3.6238-9.0311-6.0726-15.097-6.0726-19.06 0-25.55 16.003-25.55 31.304 0 14.722 6.6176 30.724 24.807 30.724 7.9199 0 13.242-2.5692 16.831-9.1089h0.24773v7.9411h22.592" fill-rule="evenodd"/>
   <path d="m243.47 315.89c-5.8249 0-9.5973-5.3153-9.5973-16.42 0-11.105 3.7441-16.42 9.569-16.42 5.8249 0 9.5832 5.3153 9.5832 16.42 0 11.105-3.7299 16.42-9.5548 16.42zm-0.0424 14.92c20.263 0 33.739-12.605 33.739-31.34 0-18.855-13.476-31.34-33.739-31.34-20.15 0-33.746 12.485-33.746 31.34 0 18.735 13.596 31.34 33.746 31.34" fill-rule="evenodd"/>
   <path d="m351.55 311.99c3.4964 11.784 14.99 18.303 33.223 18.303 20.115 0 32.352-9.0382 32.352-21.049 0-4.9261-1.9959-9.1585-5.8674-12.358-4.7491-3.8927-10.369-4.6925-17.241-5.839-11.862-1.9464-17.779-1.4863-17.737-5.1455 0.0283-1.9676 2.3781-4.1121 7.1201-4.1121 5.8744 0 9.6185 1.9322 11.869 5.5984l19.237-3.0929c-4.2466-10.185-14.615-15.79-29.854-15.79-18.989 0-29.981 8.6984-29.981 20.37 0 5.0322 2.6258 9.8379 7.1201 13.044 5.6197 4.006 11.869 4.919 18.989 6.0656 8.8683 1.4863 13.603 1.0616 13.985 4.3457 0.26895 2.2719-3.1212 4.006-8.9886 4.006-8.2455 0-12.867-2.2861-13.993-6.6388l-20.235 2.2932"/>
  </g>
 </g>
</svg>
